<?xml version="1.0" encoding="UTF-8"?>
<svg xmlns="http://www.w3.org/2000/svg" xmlns:xlink="http://www.w3.org/1999/xlink" width="60px" height="52px" viewBox="0 0 60 52" version="1.1">
<g id="surface1">
<path style=" stroke:none;fill-rule:nonzero;fill:rgb(75.686276%,15.294118%,17.647059%);fill-opacity:1;" d="M 59.988281 25.953125 C 59.988281 22.902344 59.085938 19.976562 57.308594 17.257812 C 55.714844 14.816406 53.476562 12.65625 50.664062 10.835938 C 45.230469 7.320312 38.089844 5.382812 30.558594 5.382812 C 28.042969 5.382812 25.5625 5.597656 23.15625 6.023438 C 21.664062 4.609375 19.917969 3.335938 18.070312 2.332031 C 8.195312 -2.515625 0.00390625 2.214844 0.00390625 2.214844 C 0.00390625 2.214844 7.617188 8.554688 6.378906 14.105469 C 2.972656 17.53125 1.128906 21.65625 1.128906 25.953125 C 1.128906 25.96875 1.128906 25.980469 1.128906 25.996094 C 1.128906 26.007812 1.128906 26.023438 1.128906 26.039062 C 1.128906 30.335938 2.972656 34.460938 6.378906 37.882812 C 7.617188 43.4375 0.00390625 49.773438 0.00390625 49.773438 C 0.00390625 49.773438 8.195312 54.507812 18.070312 49.660156 C 19.917969 48.652344 21.664062 47.378906 23.15625 45.964844 C 25.5625 46.390625 28.042969 46.605469 30.558594 46.605469 C 38.089844 46.605469 45.230469 44.671875 50.664062 41.15625 C 53.476562 39.335938 55.714844 37.175781 57.308594 34.730469 C 59.085938 32.015625 59.988281 29.085938 59.988281 26.039062 C 59.988281 26.023438 59.988281 26.011719 59.988281 25.996094 Z M 59.988281 25.953125 "/>
<path style=" stroke:none;fill-rule:nonzero;fill:rgb(100%,100%,100%);fill-opacity:1;" d="M 30.558594 9.695312 C 44.503906 9.695312 55.8125 17.011719 55.8125 26.035156 C 55.8125 35.058594 44.503906 42.375 30.558594 42.375 C 27.453125 42.375 24.476562 42.011719 21.730469 41.347656 C 18.9375 44.75 12.796875 49.480469 6.828125 47.953125 C 8.769531 45.84375 11.644531 42.273438 11.027344 36.394531 C 7.453125 33.574219 5.304688 29.96875 5.304688 26.035156 C 5.304688 17.011719 16.613281 9.695312 30.558594 9.695312 "/>
<path style=" stroke:none;fill-rule:nonzero;fill:rgb(75.686276%,15.294118%,17.647059%);fill-opacity:1;" d="M 30.558594 29.960938 C 32.410156 29.960938 33.914062 28.441406 33.914062 26.5625 C 33.914062 24.683594 32.410156 23.164062 30.558594 23.164062 C 28.707031 23.164062 27.203125 24.683594 27.203125 26.5625 C 27.203125 28.441406 28.707031 29.960938 30.558594 29.960938 Z M 42.222656 29.960938 C 44.074219 29.960938 45.574219 28.441406 45.574219 26.5625 C 45.574219 24.683594 44.074219 23.164062 42.222656 23.164062 C 40.371094 23.164062 38.867188 24.683594 38.867188 26.5625 C 38.867188 28.441406 40.371094 29.960938 42.222656 29.960938 Z M 18.894531 29.957031 C 20.746094 29.957031 22.25 28.4375 22.25 26.5625 C 22.25 24.6875 20.746094 23.164062 18.894531 23.164062 C 17.042969 23.164062 15.542969 24.6875 15.542969 26.5625 C 15.542969 28.4375 17.042969 29.957031 18.894531 29.957031 Z M 18.894531 29.957031 "/>
<path style=" stroke:none;fill-rule:nonzero;fill:rgb(80.000001%,80.000001%,80.000001%);fill-opacity:1;" d="M 30.558594 40.226562 C 27.453125 40.226562 24.476562 39.910156 21.730469 39.335938 C 19.265625 41.9375 14.1875 45.441406 8.921875 45.308594 C 8.230469 46.375 7.476562 47.246094 6.828125 47.953125 C 12.796875 49.480469 18.9375 44.75 21.730469 41.347656 C 24.480469 42.011719 27.453125 42.375 30.558594 42.375 C 44.394531 42.375 55.628906 35.175781 55.808594 26.25 C 55.628906 33.984375 44.394531 40.226562 30.558594 40.226562 Z M 30.558594 40.226562 "/>
</g>
</svg>
